<svg xmlns="http://www.w3.org/2000/svg" data-name="Layer 1" viewBox="0 0 168 168"><path fill="#2d4356" d="m57.458 27.244-5.5-3a2.003 2.003 0 0 0-1.916 0l-5.5 3A2 2 0 0 0 43.5 29v6a2 2 0 0 0 1.042 1.756l5.5 3a2.002 2.002 0 0 0 1.916 0l5.5-3A2 2 0 0 0 58.5 35v-6a2 2 0 0 0-1.042-1.756ZM54.5 33.812l-3.5 1.91-3.5-1.91v-3.625l3.5-1.909 3.5 1.91Z"/><path fill="#0bceb2" d="m27.542 48.756 5.5 3a2.002 2.002 0 0 0 1.916 0l5.5-3A2 2 0 0 0 41.5 47v-6a2 2 0 0 0-1.042-1.756l-5.5-3a2.003 2.003 0 0 0-1.916 0l-5.5 3A2 2 0 0 0 26.5 41v6a2 2 0 0 0 1.042 1.756Zm2.958-6.569 3.5-1.909 3.5 1.91v3.624l-3.5 1.91-3.5-1.91Z"/><path fill="#2d4356" d="m110.542 36.756 5.5 3a2.002 2.002 0 0 0 1.916 0l5.5-3A2 2 0 0 0 124.5 35v-6a2 2 0 0 0-1.042-1.756l-5.5-3a2.003 2.003 0 0 0-1.916 0l-5.5 3A2 2 0 0 0 109.5 29v6a2 2 0 0 0 1.042 1.756Zm2.958-6.569 3.5-1.909 3.5 1.91v3.624l-3.5 1.91-3.5-1.91Z"/><path fill="#0bceb2" d="m140.458 39.244-5.5-3a2.003 2.003 0 0 0-1.916 0l-5.5 3A2 2 0 0 0 126.5 41v6a2 2 0 0 0 1.042 1.756l5.5 3a2.002 2.002 0 0 0 1.916 0l5.5-3A2 2 0 0 0 141.5 47v-6a2 2 0 0 0-1.042-1.756zm-2.958 6.568-3.5 1.91-3.5-1.91v-3.625l3.5-1.909 3.5 1.91zm-59.958-5.056 5.5 3a2.002 2.002 0 0 0 1.916 0l5.5-3A2 2 0 0 0 91.5 39v-6a2 2 0 0 0-1.042-1.756l-5.5-3a2.003 2.003 0 0 0-1.916 0l-5.5 3A2 2 0 0 0 76.5 33v6a2 2 0 0 0 1.042 1.756zm2.958-6.569 3.5-1.909 3.5 1.91v3.624l-3.5 1.91-3.5-1.91zm-40.042 93.057-5.5-3a1.998 1.998 0 0 0-1.916 0l-5.5 3A2 2 0 0 0 26.5 129v6a2 2 0 0 0 1.042 1.756l5.5 3a2.002 2.002 0 0 0 1.916 0l5.5-3A2 2 0 0 0 41.5 135v-6a2 2 0 0 0-1.042-1.756zm-2.958 6.568-3.5 1.91-3.5-1.91v-3.625l3.5-1.909 3.5 1.91zm102.958-6.568-5.5-3a1.998 1.998 0 0 0-1.916 0l-5.5 3A2 2 0 0 0 126.5 129v6a2 2 0 0 0 1.042 1.756l5.5 3a2.002 2.002 0 0 0 1.916 0l5.5-3A2 2 0 0 0 141.5 135v-6a2 2 0 0 0-1.042-1.756zm-2.958 6.568-3.5 1.91-3.5-1.91v-3.625l3.5-1.909 3.5 1.91zm-47.042 1.432-5.5-3a1.998 1.998 0 0 0-1.916 0l-5.5 3A2 2 0 0 0 76.5 137v6a2 2 0 0 0 1.042 1.756l5.5 3a2.002 2.002 0 0 0 1.916 0l5.5-3A2 2 0 0 0 91.5 143v-6a2 2 0 0 0-1.042-1.756zm-2.958 6.568-3.5 1.91-3.5-1.91v-3.625l3.5-1.909 3.5 1.91z"/><path fill="#2d4356" d="M82 47.647v10.705a5.99 5.99 0 0 1 4 0V47.647a5.85 5.85 0 0 1-4 0zM115 78a4.004 4.004 0 0 0 4-4V43.647a5.85 5.85 0 0 1-4 0V74h-3.357a5.975 5.975 0 0 1 .357 2v2zm-8.042-3.756-22-12a2.003 2.003 0 0 0-1.916 0l-22 12A2 2 0 0 0 60 76v24a2 2 0 0 0 1.042 1.756l22 12a2.002 2.002 0 0 0 1.916 0l22-12A2 2 0 0 0 108 100V76a2 2 0 0 0-1.042-1.756zM104 98.812l-20 10.91-20-10.91V77.187l20-10.909 20 10.91z"/><path fill="#0bceb2" d="m79.028 73.251-9 5A2 2 0 0 0 69 80v9a2 2 0 0 0 4 0v-7.823l7.972-4.429a2 2 0 0 0-1.944-3.497Z"/><path fill="#2d4356" d="M51 44a5.997 5.997 0 0 1-2-.353V74a4.004 4.004 0 0 0 4 4h3v-2a5.975 5.975 0 0 1 .357-2H53V43.647A5.996 5.996 0 0 1 51 44Z"/><path fill="#2d4356" d="M36 80V55.647a5.85 5.85 0 0 1-4 0V80a6.007 6.007 0 0 0 6 6h18v-4H38a2.002 2.002 0 0 1-2-2zm100-24.353a5.85 5.85 0 0 1-4 0V80a2.002 2.002 0 0 1-2 2h-18v4h18a6.007 6.007 0 0 0 6-6zM134 120a5.996 5.996 0 0 1 2 .352V96a6.007 6.007 0 0 0-6-6h-18v4h18a2.003 2.003 0 0 1 2 2v24.352a5.997 5.997 0 0 1 2-.352zM56 90H38a6.007 6.007 0 0 0-6 6v24.352a5.85 5.85 0 0 1 4 0V96a2.003 2.003 0 0 1 2-2h18z"/><path fill="#2d4356" d="M117 132a5.996 5.996 0 0 1 2 .352V102a4.004 4.004 0 0 0-4-4h-3v2a5.974 5.974 0 0 1-.357 2H115v30.352a5.997 5.997 0 0 1 2-.352zm-31-3.648v-10.705a5.85 5.85 0 0 1-4 0v10.705a5.85 5.85 0 0 1 4 0zm-33 4V102h3.357a5.974 5.974 0 0 1-.357-2v-2h-3a4.004 4.004 0 0 0-4 4v30.352a5.85 5.85 0 0 1 4 0z"/><circle cx="2" cy="150" r="2" fill="#2d4356"/><path fill="#2d4356" d="M11 148H8a2 2 0 0 0 0 4h3a2 2 0 0 0 0-4zm149 0h-3a2 2 0 0 0 0 4h3a2 2 0 0 0 0-4z"/><circle cx="166" cy="150" r="2" fill="#2d4356"/><path fill="#0bceb2" d="M118.154 156h-8.308a2.006 2.006 0 0 0 0 4h8.308a2.006 2.006 0 0 0 0-4zm-60 0h-8.308a2.006 2.006 0 0 0 0 4h8.308a2.006 2.006 0 0 0 0-4zM104 156H64a2 2 0 0 0 0 4h15.94v2H72a2 2 0 0 0 0 4h25a2 2 0 0 0 0-4h-8.94v-2H104a2 2 0 0 0 0-4z"/><path fill="#2d4356" d="M150.721 148H124.23a1.997 1.997 0 0 0 .271-1v-6a2 2 0 0 0-1.042-1.756l-5.5-3a1.998 1.998 0 0 0-1.916 0l-5.5 3A2 2 0 0 0 109.5 141v6a1.997 1.997 0 0 0 .271 1H58.23a1.997 1.997 0 0 0 .271-1v-6a2 2 0 0 0-1.042-1.756l-5.5-3a1.998 1.998 0 0 0-1.916 0l-5.5 3A2 2 0 0 0 43.5 141v6a1.997 1.997 0 0 0 .271 1H17.28a2.017 2.017 0 1 0 0 4H150.72a2.017 2.017 0 1 0 0-4zm-37.221-5.813 3.5-1.909 3.5 1.91v3.624l-3.5 1.91-3.5-1.91zm-66 0 3.5-1.909 3.5 1.91v3.624l-3.5 1.91-3.5-1.91zm45.805-119.39a3 3 0 1 0-3-3 3.003 3.003 0 0 0 3 3zm0-4.5a1.5 1.5 0 1 1-1.5 1.5 1.501 1.501 0 0 1 1.5-1.5zm69.724 38.055a2 2 0 1 0 2 2 2.002 2.002 0 0 0-2-2zm0 3a1 1 0 1 1 1-1 1.001 1.001 0 0 1-1 1zM137.5 2.55a2 2 0 1 0 2 2 2.002 2.002 0 0 0-2-2zm0 3a1 1 0 1 1 1-1 1.001 1.001 0 0 1-1 1zm12.356 34.172a2 2 0 1 0 2 2 2.002 2.002 0 0 0-2-2zm0 3a1 1 0 1 1 1-1 1.001 1.001 0 0 1-1 1zM22.5 30a2 2 0 1 0-2 2 2.002 2.002 0 0 0 2-2zm-3 0a1 1 0 1 1 1 1 1.001 1.001 0 0 1-1-1z"/><path fill="#0bceb2" d="m10.888 69.011 1.487-1.955-.939-.532-.955 2.19h-.031l-.97-2.175-.955.548 1.471 1.909v.031l-2.301-.297v1.064l2.316-.297v.031l-1.486 1.908.891.564 1.018-2.206h.031l.939 2.19.986-.563-1.502-1.878v-.031l2.362.282V68.73l-2.362.312v-.031zM3.639 12.153l-.856 1.099.514.325.586-1.271H3.9l.541 1.262.568-.325-.865-1.081v-.018l1.36.162v-.612l-1.36.18v-.018L5 10.73l-.541-.307-.549 1.261h-.019l-.558-1.252-.55.315.847 1.1v.018l-1.325-.171v.612l1.334-.171v.018zM165.753 18.819v-1.043l-2.317.307v-.031l1.459-1.918-.921-.522-.936 2.148h-.032l-.951-2.133-.937.537 1.443 1.873v.031l-2.256-.292v1.043l2.271-.291v.031l-1.458 1.872.875.553.998-2.165h.03l.921 2.149.967-.552-1.473-1.842v-.031l2.317.276zM56.708 4.338l1.258-1.654-.794-.451-.807 1.853h-.027l-.821-1.84-.808.464 1.245 1.615v.027L54.007 4.1V5l1.96-.251v.026L54.709 6.39l.755.477L56.325 5h.026l.794 1.853.834-.476-1.271-1.589v-.026L58.707 5v-.9l-1.999.265v-.027z"/></svg>